# xmcd CD database file
#
# Track frame offsets:
#	182
#	14182
#	25715
#	39552
#	55367
#	68892
#	84775
#	97490
#	109607
#	120392
#	137250
#	151555
#	164120
#	176770
#	192625
#	207265
#	220115
#	233067
#	245092
#	255492
#
# Disc length: 3605 seconds
#
# Revision: 0
# Processed by: cddbd v1.4PL0 Copyright (c) Steve Scherf et al.
# Submitted via: CDex 1.50beta9
#
DISCID=180e1314
DTITLE=Benny Goodman and his Orchestra - King Porter Stomp
DYEAR=1935
DGENRE=Jazz
TTITLE0=Hunkadola
TTITLE1=I'm livin' in a great way
TTITLE2=The dixieland band
TTITLE3=Japanese sandman
TTITLE4=You're a heavenly thing
TTITLE5=Restless
TTITLE6=Always
TTITLE7=Ballad in blue
TTITLE8=Dear old southland
TTITLE9=Sometimes I'm happy
TTITLE10=King Porter Stomp
TTITLE11=Between the devil and the deep blue sea
TTITLE12=After you've gone
TTITLE13=Body and soul
TTITLE14=Who?
TTITLE15=Someday sweethart
TTITLE16=Madhouse
TTITLE17=Sandman
TTITLE18=If I could be with you one hour tonight
TTITLE19=When buddha smiles
EXTD=YEAR: 1935
EXTT0=
EXTT1=
EXTT2=
EXTT3=
EXTT4=
EXTT5=
EXTT6=
EXTT7=
EXTT8=
EXTT9=
EXTT10=
EXTT11=
EXTT12=
EXTT13=
EXTT14=
EXTT15=
EXTT16=
EXTT17=
EXTT18=
EXTT19=
PLAYORDER=
